<svg width="26" height="26" viewBox="0 0 26 26" fill="none" xmlns="http://www.w3.org/2000/svg">
<g clip-path="url(#clip0_70_1784)">
<path d="M4.7227 0.203108C4.9074 0.339775 5.068 0.498114 5.23051 0.66014C5.27378 0.703278 5.31705 0.746416 5.36163 0.790862C5.44752 0.877018 5.53321 0.963372 5.61871 1.04993C5.72022 1.15009 5.82329 1.24393 5.93192 1.33616C6.1228 1.49917 6.29831 1.67515 6.47465 1.8535C6.64785 2.02866 6.81977 2.20192 7.00785 2.36131C7.2274 2.54737 7.42626 2.75302 7.62842 2.95748C7.8031 3.13338 7.98212 3.2993 8.17126 3.45965C8.34217 3.61267 8.50117 3.77746 8.66233 3.94061C8.79963 4.07895 8.93792 4.21247 9.08671 4.33861C9.27572 4.49921 9.44884 4.67337 9.62309 4.84959C9.79629 5.02476 9.96821 5.19801 10.1563 5.3574C10.3759 5.5435 10.5748 5.74919 10.777 5.95369C10.9214 6.0991 11.0662 6.24043 11.2227 6.37303C11.4423 6.55912 11.6412 6.76482 11.8434 6.96931C11.9878 7.11473 12.1326 7.25605 12.2891 7.38866C12.5087 7.57475 12.7076 7.78044 12.9098 7.98494C13.0542 8.13035 13.199 8.27168 13.3555 8.40428C13.5751 8.59037 13.774 8.79607 13.9762 9.00056C14.1206 9.14598 14.2654 9.2873 14.4219 9.4199C14.6415 9.606 14.8404 9.81169 15.0426 10.0162C15.187 10.1616 15.3319 10.3029 15.4883 10.4355C15.7079 10.6216 15.9067 10.8272 16.1089 11.0317C16.2834 11.2074 16.4621 11.3732 16.6511 11.5333C16.8245 11.6886 16.9864 11.8554 17.1489 12.0219C17.2985 12.174 17.4539 12.3092 17.6211 12.4414C17.7373 12.6074 17.7466 12.7496 17.7227 12.9492C17.5721 13.207 17.3794 13.4135 17.1736 13.6284C17.1094 13.6963 17.0453 13.7642 16.9812 13.8321C16.9358 13.8802 16.9358 13.8802 16.8895 13.9292C16.7704 14.0564 16.6563 14.1877 16.5426 14.3197C16.424 14.4552 16.3021 14.5877 16.1802 14.7202C15.9307 14.9914 15.6836 15.2647 15.4375 15.539C15.3614 15.6237 15.2852 15.7083 15.209 15.793C15.1525 15.8558 15.1525 15.8558 15.0948 15.9199C14.295 16.8086 14.295 16.8086 14.1803 16.9359C14.1054 17.0192 14.0305 17.1025 13.9558 17.1859C13.7945 17.3654 13.6333 17.5449 13.469 17.7216C12.9501 18.252 12.9501 18.252 12.5938 18.8906C12.2433 18.809 11.8989 18.7143 11.5559 18.6056C11.5188 18.5939 11.4817 18.5822 11.4434 18.5701C11.3529 18.5416 11.2624 18.513 11.1719 18.4844C11.1705 18.4509 11.169 18.4175 11.1675 18.383C11.1521 18.0336 11.1354 17.6843 11.118 17.3351C11.1117 17.2049 11.1057 17.0746 11.1 16.9444C11.0918 16.7568 11.0824 16.5693 11.0727 16.3817C11.0704 16.3238 11.0682 16.2659 11.0658 16.2063C11.0436 15.8049 10.987 15.5041 10.6945 15.2157C10.5572 15.1295 10.4329 15.0755 10.2789 15.0255C10.1962 14.9982 10.1962 14.9982 10.1118 14.9704C10.0532 14.9517 9.99455 14.9331 9.93412 14.9138C9.8738 14.8941 9.81349 14.8745 9.75134 14.8542C9.29539 14.7064 8.8375 14.5649 8.37818 14.4279C8.33281 14.4144 8.28743 14.4009 8.24069 14.3869C8.20101 14.3752 8.16134 14.3635 8.12047 14.3514C8.02348 14.3203 8.02348 14.3203 7.92192 14.2695C7.9191 14.2081 7.91629 14.1467 7.9134 14.0834C7.90282 13.8528 7.89209 13.6223 7.88131 13.3918C7.87669 13.2925 7.87211 13.1932 7.86758 13.0939C7.89756 12.0559 7.89756 12.0559 7.56645 11.1211C7.29648 10.903 6.98995 10.7975 6.66111 10.7015C6.61483 10.6875 6.56854 10.6734 6.52086 10.659C6.37443 10.6146 6.22778 10.571 6.08109 10.5276C5.93373 10.4834 5.78641 10.4391 5.63915 10.3946C5.54789 10.367 5.45656 10.3397 5.36516 10.3127C5.3031 10.2941 5.3031 10.2941 5.23978 10.2751C5.20357 10.2644 5.16736 10.2536 5.13005 10.2426C4.93147 10.1738 4.84246 10.1328 4.7227 9.95311C4.65226 9.70837 4.65724 9.45099 4.64831 9.19813C4.64432 9.09875 4.64032 8.99937 4.63631 8.89999C4.63024 8.74411 4.6243 8.58822 4.61862 8.43232C4.61303 8.28133 4.6069 8.13036 4.6007 7.97938C4.59916 7.93314 4.59763 7.8869 4.59604 7.83925C4.58027 7.46742 4.54949 7.12472 4.26566 6.85545C3.96435 6.69522 3.64139 6.59286 3.3157 6.49522C3.22322 6.46674 3.13075 6.43824 3.03829 6.40973C2.89439 6.36569 2.75043 6.32185 2.60636 6.27839C2.466 6.23591 2.3259 6.19265 2.18582 6.14927C2.14276 6.13652 2.0997 6.12377 2.05533 6.11062C1.83003 6.0403 1.67316 5.98214 1.52348 5.78905C1.4446 5.6313 1.45432 5.46154 1.44552 5.28798C1.44334 5.24786 1.44116 5.20775 1.43891 5.16642C1.43432 5.08113 1.42985 4.99584 1.42547 4.91054C1.41886 4.78203 1.41184 4.65355 1.40476 4.52507C1.39374 4.32221 1.38463 4.11933 1.37628 3.91634C1.37166 3.81955 1.36471 3.72287 1.35747 3.62623C1.3412 3.31934 1.36427 3.13387 1.57012 2.90007C1.605 2.86472 1.63988 2.82937 1.67582 2.79295C1.71993 2.74713 1.76404 2.70131 1.80949 2.6541C1.96469 2.49488 2.12317 2.33914 2.28202 2.18358C2.38951 2.07796 2.49684 1.97218 2.60397 1.86619C2.62981 1.84063 2.65566 1.81506 2.68229 1.78872C2.85011 1.62153 3.00775 1.44882 3.16138 1.2687C3.3467 1.05812 3.54696 0.861663 3.74516 0.663313C3.7883 0.619553 3.83143 0.575793 3.87588 0.530707C3.91732 0.489172 3.95875 0.447638 4.00144 0.404845C4.05749 0.34849 4.05749 0.34849 4.11466 0.290996C4.30083 0.127742 4.4982 0.114914 4.7227 0.203108ZM4.11332 1.77733C4.05538 1.96478 4.04093 2.07518 4.11015 2.25975C4.23159 2.40695 4.36395 2.5262 4.51025 2.64834C4.58459 2.71125 4.65697 2.77653 4.72726 2.84393C4.93 3.03858 4.93 3.03858 5.18925 3.13255C5.37114 3.08809 5.45897 3.0324 5.58598 2.89451C5.64511 2.74707 5.64511 2.74707 5.63676 2.58983C5.53005 2.37569 5.38342 2.2213 5.21464 2.05345C5.14424 1.98265 5.14424 1.98265 5.07241 1.91043C4.73512 1.60418 4.49708 1.44473 4.11332 1.77733ZM6.14457 3.80858C6.10225 3.98631 6.10225 3.98631 6.14457 4.16405C6.22667 4.2534 6.31026 4.33493 6.39848 4.41795C6.46884 4.48849 6.53898 4.55926 6.60894 4.6302C6.68795 4.70968 6.76697 4.78916 6.84599 4.86864C6.90456 4.92784 6.90456 4.92784 6.96431 4.98825C7.17757 5.20241 7.39498 5.40697 7.62411 5.604C7.7727 5.73502 7.91049 5.87593 8.04887 6.01756C8.22195 6.19282 8.394 6.36599 8.58207 6.52537C8.80154 6.71136 9.00033 6.91693 9.20242 7.12132C9.37902 7.29916 9.5599 7.46745 9.75123 7.62947C9.92493 7.78395 10.0855 7.95171 10.2477 8.11804C10.3824 8.24886 10.4692 8.32255 10.6578 8.34715C10.8595 8.32294 10.9349 8.27588 11.0704 8.12498C11.1472 7.95966 11.1472 7.95966 11.1211 7.76951C11.0251 7.61217 10.897 7.49149 10.7657 7.36326C10.7215 7.3179 10.6773 7.27254 10.6318 7.2258C10.4008 6.99031 10.165 6.76511 9.91389 6.55116C9.76041 6.41276 9.61602 6.26605 9.47074 6.11912C9.29754 5.94396 9.12562 5.7707 8.93754 5.61131C8.71795 5.42522 8.51906 5.21952 8.31686 5.01503C8.14346 4.84042 7.96594 4.67577 7.7779 4.51694C7.59323 4.3506 7.42104 4.17124 7.24867 3.99226C7.04453 3.78363 6.84381 3.5805 6.54765 3.52611C6.33983 3.5659 6.26772 3.63834 6.14457 3.80858Z" fill="#13527F"/>
<path d="M18.9921 12.8477C19.1645 12.9232 19.2858 13.022 19.4238 13.1492C19.4682 13.1898 19.5125 13.2305 19.5583 13.2724C19.6061 13.3165 19.6538 13.3607 19.7031 13.4062C19.8067 13.5015 19.9104 13.5967 20.0141 13.6919C20.0401 13.7158 20.0662 13.7397 20.093 13.7644C20.2633 13.9207 20.4361 14.0737 20.6108 14.2251C20.7773 14.372 20.9402 14.523 21.1035 14.6734C21.2445 14.803 21.3865 14.9312 21.5312 15.0566C21.7281 15.2274 21.9199 15.4036 22.1118 15.5801C22.3567 15.8053 22.6039 16.0278 22.8515 16.25C22.9362 16.3262 23.0208 16.4023 23.1054 16.4785C23.1473 16.5162 23.1892 16.5539 23.2324 16.5928C24.121 17.3926 24.121 17.3926 24.2484 17.5072C24.3317 17.5821 24.415 17.657 24.4983 17.7318C24.6267 17.847 24.7547 17.9625 24.8828 18.0781C24.9084 18.1011 24.9339 18.124 24.9603 18.1477C25.0415 18.2206 25.1224 18.2937 25.2033 18.3669C25.2769 18.4332 25.2769 18.4332 25.3519 18.5008C25.7496 18.8862 25.9755 19.2857 26.0126 19.8428C25.9974 20.5803 25.4204 21.0563 24.9484 21.5562C24.8001 21.7135 24.6566 21.8742 24.5156 22.0381C24.3948 22.1759 24.2706 22.3105 24.1464 22.4453C23.9921 22.6129 23.8386 22.781 23.6894 22.9531C23.5186 23.1501 23.3424 23.3419 23.1659 23.5337C22.9408 23.7786 22.7182 24.0258 22.496 24.2734C22.3819 24.4003 22.2678 24.5271 22.1535 24.6537C22.0761 24.7399 21.9993 24.8265 21.923 24.9136C21.4236 25.4798 20.9556 25.9085 20.173 25.9623C19.5726 25.9855 19.2316 25.8863 18.7858 25.4763C18.7332 25.4265 18.6808 25.3764 18.6285 25.3262C18.5151 25.217 18.4006 25.1122 18.2812 25.0098C18.0843 24.839 17.8925 24.6628 17.7006 24.4863C17.4557 24.2611 17.2085 24.0386 16.9609 23.8164C16.8762 23.7402 16.7916 23.6641 16.707 23.5879C16.6441 23.5313 16.6441 23.5313 16.58 23.4736C16.1992 23.1309 16.1992 23.1309 16.0718 23.0162C15.9886 22.9413 15.9053 22.8664 15.8219 22.7917C15.5888 22.5824 15.357 22.3717 15.1264 22.1597C14.9609 22.0075 14.7948 21.8563 14.625 21.709C14.4489 21.5562 14.2764 21.3998 14.1044 21.2424C14.0787 21.2189 14.0529 21.1953 14.0263 21.171C13.9547 21.1053 13.8835 21.039 13.8125 20.9727C13.7595 20.9278 13.7595 20.9278 13.7055 20.8821C13.584 20.7399 13.5744 20.649 13.5562 20.464C13.5499 20.4047 13.5437 20.3453 13.5373 20.2841C13.5318 20.2223 13.5262 20.1604 13.5205 20.0967C13.5141 20.0356 13.5078 19.9745 13.5012 19.9116C13.4841 19.7407 13.47 19.5697 13.457 19.3984C13.4527 19.3577 13.4485 19.3169 13.4441 19.275C13.4307 19.0792 13.4538 18.9968 13.5667 18.8335C13.6148 18.7839 13.664 18.7352 13.7141 18.6875C13.766 18.6346 13.8179 18.5817 13.8698 18.5288C13.8951 18.5037 13.9203 18.4785 13.9464 18.4526C14.033 18.3652 14.1135 18.2734 14.1933 18.1797C14.3641 17.9827 14.5403 17.7909 14.7168 17.5991C14.9419 17.3542 15.1645 17.107 15.3867 16.8594C15.4628 16.7747 15.539 16.6901 15.6152 16.6055C15.6529 16.5636 15.6906 16.5217 15.7294 16.4785C16.9863 15.082 16.9863 15.082 17.1009 14.9547C17.1758 14.8714 17.2507 14.7881 17.3255 14.7047C17.5348 14.4716 17.7454 14.2399 17.9575 14.0093C18.1408 13.8098 18.3219 13.6087 18.4994 13.4041C18.662 13.2172 18.8273 13.0326 18.9921 12.8477ZM20.6687 17.7564C20.5445 17.9003 20.416 18.04 20.2871 18.1797C20.1327 18.3473 19.9792 18.5153 19.83 18.6875C19.6592 18.8844 19.483 19.0762 19.3066 19.2681C19.0814 19.513 18.8588 19.7602 18.6367 20.0078C18.5605 20.0925 18.4843 20.1771 18.4082 20.2617C18.3705 20.3036 18.3327 20.3455 18.2939 20.3887C18.1225 20.5791 18.1225 20.5791 17.9511 20.7695C17.9139 20.8109 17.8768 20.8523 17.8385 20.8949C17.7572 20.985 17.6757 21.0749 17.5941 21.1647C17.5527 21.2102 17.5113 21.2558 17.4687 21.3027C17.431 21.3441 17.3933 21.3855 17.3544 21.4281C17.238 21.5632 17.2166 21.6176 17.1958 21.7979C17.2306 22.146 17.499 22.326 17.7512 22.5409C17.9056 22.675 18.0552 22.8139 18.205 22.9531C18.4133 23.1463 18.6224 23.3375 18.8384 23.522C18.9201 23.5945 18.9994 23.6697 19.0776 23.7458C19.1259 23.7921 19.1741 23.8385 19.2238 23.8862C19.2679 23.9296 19.3119 23.9729 19.3573 24.0175C19.5286 24.1419 19.6454 24.1643 19.8554 24.1719C20.094 24.0576 20.2443 23.8834 20.4114 23.6847C20.5356 23.539 20.665 23.3984 20.7949 23.2578C20.9492 23.0903 21.1027 22.9222 21.2519 22.75C21.4227 22.5531 21.5989 22.3613 21.7754 22.1694C22.0005 21.9245 22.2231 21.6773 22.4453 21.4297C22.5214 21.345 22.5976 21.2604 22.6738 21.1758C22.7115 21.1339 22.7492 21.092 22.788 21.0488C22.9594 20.8584 22.9594 20.8584 23.1308 20.668C23.1869 20.6054 23.1869 20.6054 23.2441 20.5416C23.3229 20.4544 23.4024 20.3678 23.4825 20.2818C23.8617 19.9046 23.8617 19.9046 24.0227 19.4175C23.949 19.2529 23.848 19.1646 23.7148 19.043C23.6585 18.986 23.6025 18.9289 23.5466 18.8716C23.3946 18.7196 23.2361 18.5781 23.0733 18.4378C22.9207 18.3036 22.7719 18.1656 22.623 18.0273C22.4078 17.8279 22.1926 17.629 21.9694 17.4384C21.8965 17.3756 21.8263 17.3097 21.7565 17.2434C21.2806 16.9383 20.9508 17.4248 20.6687 17.7564Z" fill="#13527F"/>
<path d="M19.7539 7.14138e-06C19.9157 0.117572 20.047 0.259648 20.1824 0.406257C20.2195 0.44501 20.2567 0.483762 20.2949 0.523689C20.3863 0.619209 20.4767 0.715457 20.5664 0.812507C20.4853 1.01497 20.3434 1.1492 20.1901 1.2985C20.1633 1.32502 20.1365 1.35155 20.1089 1.37887C20.0236 1.46328 19.938 1.54734 19.8523 1.63135C19.7665 1.71578 19.6807 1.80028 19.5951 1.88492C19.5419 1.93751 19.4886 1.98997 19.4351 2.04227C19.2333 2.23921 19.2333 2.23921 19.189 2.51051C19.1867 2.68954 19.1867 2.68954 19.2461 2.84376C19.3079 2.85528 19.3697 2.8668 19.4333 2.87867C19.4681 2.88515 19.5029 2.89163 19.5387 2.89831C19.8232 2.88887 20.0212 2.64089 20.2088 2.44961C20.2366 2.42164 20.2644 2.39368 20.2931 2.36487C20.3812 2.27612 20.4691 2.18702 20.5569 2.09791C20.6169 2.03742 20.6769 1.97695 20.7369 1.9165C20.8835 1.76882 21.0297 1.62083 21.1758 1.47266C21.4897 1.73188 21.7749 2.01516 22.0613 2.30421C22.1081 2.35127 22.155 2.39834 22.2032 2.44683C22.3179 2.5621 22.4324 2.67748 22.5469 2.79298C22.4657 3.00028 22.3164 3.132 22.1577 3.28115C22.1001 3.33669 22.0426 3.39226 21.9851 3.44788C21.8947 3.53487 21.804 3.62155 21.7126 3.70757C21.6242 3.79102 21.537 3.87557 21.4499 3.96035C21.4225 3.98565 21.395 4.01094 21.3667 4.03701C21.2239 4.17779 21.1773 4.25301 21.1537 4.45471C21.1639 4.62184 21.1639 4.62184 21.2551 4.74488C21.4292 4.85647 21.5298 4.84962 21.7344 4.82423C21.8645 4.74183 21.964 4.63615 22.069 4.5243C22.0989 4.49387 22.1289 4.46343 22.1597 4.43208C22.2547 4.33508 22.3484 4.23693 22.4421 4.13868C22.5065 4.07254 22.5709 4.00649 22.6354 3.94051C22.7931 3.77896 22.9496 3.61636 23.1055 3.45313C23.3089 3.53457 23.4445 3.67764 23.595 3.83121C23.6218 3.85812 23.6486 3.88503 23.6761 3.91275C23.7612 3.9984 23.8459 4.0844 23.9307 4.17042C23.9884 4.22869 24.0462 4.28695 24.104 4.34518C24.2454 4.48767 24.3865 4.63047 24.5273 4.77344C23.5909 5.88752 22.4661 6.72756 20.9791 6.89718C20.7813 6.9138 20.5839 6.91593 20.3855 6.91578C20.3406 6.91581 20.2958 6.91584 20.2495 6.91588C19.9928 6.91383 19.7477 6.8966 19.4937 6.85548C17.9045 6.61406 16.3318 6.94381 15.0249 7.8838C14.8551 8.01177 14.6891 8.14412 14.5234 8.27735C14.3464 8.20198 14.2369 8.10154 14.1045 7.96314C13.966 7.82124 13.8276 7.6847 13.676 7.55689C13.3475 7.27583 13.0497 6.95977 12.7461 6.65235C13.0284 6.30842 13.3426 5.99791 13.6571 5.68396C13.7186 5.62247 13.78 5.56096 13.8414 5.49944C14.0073 5.33326 14.1734 5.16723 14.3396 5.00124C14.5136 4.82737 14.6875 4.65337 14.8614 4.47939C15.1531 4.18758 15.4449 3.89588 15.7368 3.60424C16.0745 3.2668 16.412 2.92919 16.7495 2.59148C17.0393 2.30139 17.3293 2.01141 17.6193 1.72151C17.7925 1.54841 17.9656 1.37527 18.1387 1.20204C18.3011 1.03946 18.4637 0.876991 18.6264 0.714623C18.6861 0.65491 18.7459 0.595154 18.8056 0.535352C18.8868 0.453993 18.9682 0.372791 19.0496 0.291629C19.0952 0.246077 19.1407 0.200524 19.1877 0.153592C19.3732 -0.0211098 19.5005 -0.0365228 19.7539 7.14138e-06ZM17.6028 3.80622C17.5729 3.83559 17.5429 3.86497 17.5121 3.89523C17.4491 3.95724 17.3863 4.01939 17.3236 4.08167C17.2278 4.17648 17.131 4.27014 17.0341 4.36382C16.9729 4.42439 16.9117 4.48502 16.8506 4.54572C16.8217 4.5734 16.7928 4.60108 16.763 4.6296C16.5765 4.81821 16.5048 4.9543 16.5039 5.23048C16.5967 5.41204 16.5967 5.41204 16.7578 5.53516C16.9289 5.59025 16.9289 5.59025 17.1133 5.53516C17.4493 5.29652 17.7342 4.97286 18.0247 4.68114C18.1013 4.6043 18.1781 4.52774 18.255 4.4512C18.3039 4.40226 18.3528 4.35329 18.4017 4.30431C18.4676 4.2383 18.4676 4.2383 18.5348 4.17095C18.6548 4.04327 18.6834 3.99158 18.7065 3.81812C18.7007 3.64775 18.7007 3.64775 18.5764 3.51344C18.1673 3.19524 17.9085 3.50523 17.6028 3.80622Z" fill="#13527F"/>
<path d="M10.4102 18.7891C10.451 18.8582 10.451 18.8582 10.4927 18.9287C10.7602 19.3393 11.4122 19.4282 11.8574 19.5635C11.9339 19.587 12.0103 19.6105 12.0867 19.6341C12.2726 19.6913 12.4585 19.7481 12.6445 19.8047C12.6208 20.0432 12.5322 20.1454 12.3647 20.3124C12.3407 20.3367 12.3166 20.3609 12.2919 20.3859C12.2114 20.4668 12.1301 20.5471 12.0489 20.6274C11.9909 20.6853 11.9331 20.7433 11.8752 20.8013C11.7181 20.9587 11.5603 21.1155 11.4025 21.2722C11.2375 21.4361 11.073 21.6005 10.9085 21.7649C10.6323 22.0409 10.3556 22.3164 10.0788 22.5917C9.72303 22.9454 9.3679 23.2996 9.01296 23.6541C8.70812 23.9585 8.40305 24.2627 8.09792 24.5668C7.99967 24.6648 7.90145 24.7627 7.80323 24.8607C7.6491 25.0144 7.49483 25.1679 7.34045 25.3213C7.28371 25.3778 7.227 25.4343 7.17034 25.4908C7.09322 25.5677 7.01594 25.6445 6.93863 25.7212C6.89535 25.7643 6.85207 25.8073 6.80748 25.8517C6.67819 25.9725 6.61979 25.9967 6.44426 26.0286C6.14702 25.9857 6.01562 25.8082 5.81763 25.5938C5.78048 25.555 5.74333 25.5162 5.70506 25.4763C5.61371 25.3808 5.5233 25.2846 5.43359 25.1875C5.49681 25.0068 5.56131 24.889 5.6992 24.7565C5.73143 24.725 5.76367 24.6935 5.79687 24.6611C5.83095 24.6285 5.86503 24.5959 5.90015 24.5623C5.96987 24.4942 6.03949 24.426 6.10902 24.3577C6.14199 24.3254 6.17496 24.2931 6.20893 24.2598C6.33698 24.1318 6.45432 23.9963 6.57101 23.8581C6.70576 23.7049 6.85313 23.5645 6.99829 23.4213C7.09908 23.319 7.19372 23.2144 7.28711 23.1055C7.45211 22.913 7.62998 22.7364 7.81039 22.5584C7.9439 22.423 8.06743 22.2808 8.19106 22.1365C8.30726 22.0053 8.43148 21.8835 8.55763 21.7619C8.68648 21.6277 8.73294 21.5425 8.75659 21.3567C8.75036 21.172 8.75036 21.172 8.62964 21.0488C8.42946 20.9466 8.34148 20.9655 8.125 21.0234C7.99073 21.1202 7.88172 21.2356 7.76953 21.3567C7.73833 21.3891 7.70712 21.4216 7.67497 21.455C7.49145 21.6471 7.31337 21.8436 7.14171 22.0464C7.0062 22.2 6.85842 22.3412 6.71265 22.485C6.61186 22.5872 6.51722 22.6918 6.42383 22.8008C6.25871 22.9934 6.08069 23.1702 5.90015 23.3483C5.79936 23.4505 5.70472 23.5551 5.61133 23.6641C5.41193 23.8965 5.19477 24.1096 4.97656 24.3242C4.90953 24.3913 4.8425 24.4583 4.77344 24.5273C4.33773 24.0916 3.90203 23.6559 3.45312 23.207C3.55762 22.998 3.67592 22.8817 3.84668 22.731C4.10516 22.4973 4.35786 22.259 4.60522 22.0137C4.63568 21.9839 4.66614 21.9541 4.69751 21.9233C4.7401 21.8809 4.7401 21.8809 4.78355 21.8375C4.8086 21.8127 4.83366 21.7878 4.85947 21.7622C4.99241 21.6046 5.02831 21.5081 5.021 21.2996C4.99011 21.1272 4.99011 21.1272 4.89404 21.0234C4.71302 20.9472 4.6078 20.9746 4.41797 21.0234C4.27957 21.1212 4.1666 21.2392 4.05 21.3616C4.01669 21.3954 3.98338 21.4291 3.94906 21.4639C3.84331 21.5713 3.73867 21.6798 3.63403 21.7883C3.56233 21.8616 3.49056 21.9347 3.41871 22.0078C3.24316 22.1867 3.0686 22.3665 2.89453 22.5469C2.6946 22.4544 2.55768 22.3246 2.40497 22.1688C2.3782 22.1419 2.35144 22.115 2.32387 22.0873C2.23878 22.0016 2.15406 21.9156 2.06934 21.8296C2.01157 21.7713 1.95378 21.7131 1.89597 21.6548C1.75459 21.5123 1.61354 21.3695 1.47266 21.2266C2.13753 20.384 3.29869 19.9493 4.33684 19.8206C4.85028 19.776 5.33774 19.8063 5.84659 19.8799C7.36392 20.0837 8.98155 19.7933 10.2243 18.8513C10.3086 18.7891 10.3086 18.7891 10.4102 18.7891Z" fill="#13527F"/>
<path d="M7.00775 12.4414C7.24358 13.121 7.40173 13.89 7.10931 14.5742C6.48613 15.6027 5.38625 16.4329 4.48413 17.2083C4.34366 17.3381 4.27242 17.4237 4.24335 17.6147C4.25443 17.7817 4.25443 17.7817 4.3703 17.9226C4.5121 18.0439 4.5121 18.0439 4.68814 18.0253C4.90853 17.9678 5.01913 17.8701 5.16909 17.7081C5.19614 17.6802 5.2232 17.6523 5.25107 17.6236C5.30945 17.5632 5.36749 17.5025 5.4252 17.4414C5.5167 17.3449 5.60923 17.2494 5.70212 17.1542C5.96591 16.8834 6.22786 16.6109 6.48876 16.3373C6.64866 16.1698 6.8099 16.0037 6.97203 15.8383C7.03342 15.7751 7.09429 15.7114 7.15458 15.6472C7.62339 15.1478 7.62339 15.1478 7.84413 15.1131C7.96663 15.1383 8.06349 15.1796 8.17572 15.2344C8.253 15.2578 8.33065 15.28 8.4086 15.301C8.48972 15.3258 8.57079 15.3507 8.65179 15.3758C8.69499 15.3891 8.73818 15.4023 8.78268 15.416C8.873 15.4438 8.96329 15.4716 9.05356 15.4996C9.19231 15.5425 9.33117 15.5851 9.47005 15.6276C9.55806 15.6548 9.64607 15.6819 9.73407 15.7091C9.77569 15.7218 9.81732 15.7346 9.8602 15.7477C10.1503 15.8379 10.1503 15.8379 10.207 15.8945C10.215 15.9642 10.2197 16.0342 10.223 16.1042C10.2252 16.148 10.2274 16.1918 10.2297 16.2369C10.2356 16.3824 10.2406 16.528 10.2455 16.6735C10.2514 16.8484 10.2632 17.0193 10.2859 17.1928C10.3373 17.6603 10.3373 17.6603 10.2 17.8555C10.0104 18.0549 9.78277 18.1939 9.54681 18.332C9.51535 18.3514 9.48389 18.3708 9.45148 18.3907C8.65017 18.8804 7.75127 19.1149 6.81415 19.1064C6.76041 19.1062 6.70667 19.1061 6.6513 19.1059C6.3751 19.1028 6.10947 19.0896 5.83661 19.043C4.32195 18.789 2.74209 19.1788 1.49481 20.0649C1.28245 20.2163 1.09394 20.3781 0.914001 20.5664C0.681455 20.4606 0.523741 20.302 0.342712 20.1252C0.30972 20.0948 0.276729 20.0643 0.242737 20.0329C0.0894177 19.883 0.00884045 19.7897 -0.0437012 19.5784C0.073801 19.0939 0.648124 18.6919 0.995492 18.3447C1.05993 18.2801 1.12435 18.2155 1.18877 18.1509C1.36269 17.9766 1.53677 17.8024 1.7109 17.6282C1.81968 17.5194 1.92843 17.4105 2.03717 17.3017C2.41646 16.9219 2.79589 16.5423 3.17544 16.1627C3.52947 15.8087 3.88322 15.4545 4.23683 15.1C4.54061 14.7956 4.84459 14.4914 5.14871 14.1873C5.33031 14.0057 5.51182 13.824 5.69314 13.6422C5.86327 13.4715 6.03363 13.3012 6.20419 13.131C6.26688 13.0683 6.32949 13.0056 6.392 12.9428C6.47699 12.8574 6.56229 12.7724 6.64767 12.6874C6.67263 12.6622 6.69758 12.6369 6.72328 12.611C6.8946 12.4414 6.8946 12.4414 7.00775 12.4414Z" fill="#13527F"/>
<path d="M25.0859 5.43359C25.3185 5.5394 25.4762 5.69796 25.6572 5.87476C25.7067 5.92046 25.7067 5.92046 25.7572 5.96709C25.9105 6.11703 25.9911 6.21029 26.0436 6.42165C25.9335 6.87584 25.4179 7.24144 25.0961 7.56204C25.0415 7.61662 24.9869 7.67122 24.9323 7.72582C24.7852 7.8729 24.638 8.01982 24.4908 8.16671C24.3365 8.32067 24.1824 8.47477 24.0282 8.62886C23.7368 8.92012 23.4453 9.21125 23.1537 9.50233C22.8215 9.83394 22.4895 10.1657 22.1574 10.4975C21.4749 11.1795 20.7922 11.8613 20.1094 12.543C19.9358 12.4767 19.8132 12.4169 19.6777 12.2891C19.4422 12.0814 19.2655 12.0175 18.945 12.0248C18.7827 12.0408 18.6388 12.0852 18.4844 12.1367C18.4634 12.1152 18.4425 12.0936 18.4209 12.0715C18.227 11.8746 18.0267 11.6896 17.8175 11.5093C17.6955 11.4018 17.5819 11.2885 17.4688 11.1719C17.537 11.0175 17.6102 10.9198 17.7357 10.8077C17.7675 10.7781 17.7992 10.7485 17.832 10.718C17.8986 10.6568 17.9657 10.5962 18.0335 10.5363C18.2144 10.3696 18.2144 10.3696 18.305 10.1477C18.3072 10 18.2991 9.88231 18.2241 9.75317C18.0841 9.67383 17.986 9.65161 17.8242 9.64844C17.5684 9.79385 17.3744 9.98432 17.1704 10.1943C17.1403 10.2249 17.1102 10.2555 17.0792 10.287C17.0057 10.3617 16.9325 10.4367 16.8594 10.5117C16.7112 10.4449 16.608 10.3738 16.4952 10.2572C16.4512 10.2123 16.4512 10.2123 16.4062 10.1665C16.3756 10.1348 16.345 10.1032 16.3135 10.0706C16.093 9.84598 15.8719 9.62833 15.6315 9.42488C15.4567 9.27142 15.2953 9.10386 15.1328 8.9375C15.1999 8.73614 15.3277 8.6617 15.4946 8.54395C15.5263 8.52155 15.558 8.49915 15.5906 8.47608C16.6573 7.74406 17.9984 7.44378 19.2747 7.66797C20.8605 7.92635 22.3945 7.57628 23.7267 6.69618C24.2285 6.32858 24.6549 5.8798 25.0859 5.43359Z" fill="#13527F"/>
</g>
<defs>
<clipPath id="clip0_70_1784">
<rect width="26" height="26" fill="white"/>
</clipPath>
</defs>
</svg>
